<?xml version="1.0" encoding="utf-8"?>
<!-- Generator: Adobe Illustrator 25.0.1, SVG Export Plug-In . SVG Version: 6.00 Build 0)  -->
<svg version="1.1" id="Layer_1" xmlns="http://www.w3.org/2000/svg" xmlns:xlink="http://www.w3.org/1999/xlink" x="0px" y="0px"
	 viewBox="0 0 1000 1000" style="enable-background:new 0 0 1000 1000;" xml:space="preserve">
<style type="text/css">
	.st0{fill:none;stroke:#000000;stroke-width:10;stroke-miterlimit:10;}
	.st1{stroke:#000000;stroke-width:10;stroke-miterlimit:10;}
	.st2{font-family:'HelveticaNeue-UltraLight';}
	.st3{font-size:364.0606px;}
</style>
<g>
	<path class="st0" d="M36.1,246.9h85.5l29.8,105.9h0.9L182,246.9h86.7L191.3,431v119.5h-79.1V431L36.1,246.9z"/>
	<path class="st0" d="M366.7,465.8c0,14.7,2.1,24.6,6.4,29.5c4.2,5,10.1,7.4,17.4,7.4s13.2-2.5,17.4-7.4c4.2-5,6.4-14.8,6.4-29.5
		v-219h79.1v199c0,21.3-2.3,39-6.8,53.1c-4.5,14.2-11.1,25.5-19.8,34c-8.6,8.5-19.4,14.3-32.1,17.4c-12.8,3.1-27.5,4.7-44.2,4.7
		c-16.4,0-31.1-1.6-44-4.7s-23.7-8.9-32.3-17.4c-8.6-8.5-15.2-19.8-19.8-34c-4.5-14.2-6.8-31.9-6.8-53.1v-199h79.1L366.7,465.8
		L366.7,465.8z"/>
	<text transform="matrix(1 0 0 1 497.2307 625.3478)" class="st1 st2 st3">AN</text>
</g>
</svg>
